<svg xmlns="http://www.w3.org/2000/svg" viewBox="0 0 264.53 49.68"><g id="レイヤー_2" data-name="レイヤー 2"><g id="レイヤー_1-2" data-name="レイヤー 1"><g id="グループ化_40" data-name="グループ化 40"><path id="パス_179" data-name="パス 179" d="M1.31,20.7A1.31,1.31,0,0,0,0,22V48.08a1.31,1.31,0,0,0,1.31,1.3H24.49a1.31,1.31,0,0,0,1.31-1.3V22a1.32,1.32,0,0,0-1.31-1.3ZM21.82,46H3.92V36.45h17.9Zm0-12.95H3.92v-9h17.9Z"/><path id="パス_180" data-name="パス 180" d="M51.28,34.88,56.2,48.53h4.3l-5.16-13.8a7.21,7.21,0,0,1-.52-2.5V26h5.34V22.66H46.89V19.33H42.74v3.33H29.46V26H34.7v6.19a7.63,7.63,0,0,1-.51,2.5L29,48.52h4.3l4.92-13.65a7.89,7.89,0,0,0,.5-2.5V26h4V40.85h-5.8v3.38h5.8v5.42h4.15V44.23h5.79V40.85H46.89V26h3.89v6.34a7.89,7.89,0,0,0,.5,2.5Z"/><path id="パス_181" data-name="パス 181" d="M91.85,24.65H79.79V23.14H90.27V20.32H65.57v2.82H76v1.51H64a1.3,1.3,0,0,0-1.3,1.3h0V32.5h3.87V27.4H69v3.67a1.31,1.31,0,0,0,1.32,1.3H85.53a1.3,1.3,0,0,0,1.3-1.3V27.4h2.55v5.1h3.79V26a1.32,1.32,0,0,0-1.32-1.3ZM72.61,27.4h3.44v2.19H72.61Zm10.73,2.19H79.79V27.4h3.55Z"/><path id="パス_182" data-name="パス 182" d="M90.78,45.11a1.32,1.32,0,0,0,1.3-1.3V35a1.32,1.32,0,0,0-1.3-1.31H65.06A1.31,1.31,0,0,0,63.75,35v8.86a1.31,1.31,0,0,0,1.31,1.3H76v3.23a1.31,1.31,0,0,0,1.3,1.31H92.07v-3H79.79V45.11Zm-11-8.9h8.42V38H79.79Zm0,4.49h8.42v1.77H79.79ZM67.62,36.21H76V38H67.62Zm0,6.26V40.7H76v1.77Z"/><path id="パス_183" data-name="パス 183" d="M126.58,34H113.72V32.19L123,29.38a2,2,0,0,0,1.22-1.76V22.07a1.24,1.24,0,0,0-1.15-1.31H98.22v3.5h21.84v2.37l-6.34,1.88h-4.15V34H95.88v3.38h13.69v9h-9.45l.75,3.26h11.54a1.31,1.31,0,0,0,1.31-1.31v-11h12.86Z"/><path id="パス_184" data-name="パス 184" d="M155.33,38H158a1.3,1.3,0,0,0,1.3-1.3V27.17a1.31,1.31,0,0,0-1.3-1.32H147V24.23h13.5v-3H147V19.58h-3.75v1.66H129.79v3h13.45v1.62h-11A1.33,1.33,0,0,0,131,27.16v9.52A1.31,1.31,0,0,0,132.28,38h19.24v1.75H130v3h4l1.13,5.13H139l-1.13-5.13h13.68v3.61H140.58l.58,3.34H154a1.3,1.3,0,0,0,1.3-1.3V42.73h5.35v-3h-5.35Zm-12.08-2.84h-8.41V33.37h8.41Zm0-4.61h-8.41V28.76h8.41ZM147,28.76h8.41v1.78H147Zm0,4.61h8.41v1.78H147Z"/><path id="パス_185" data-name="パス 185" d="M168.27,49.66V35.12h8.48a1.32,1.32,0,0,0,1.31-1.31V21.91a1.31,1.31,0,0,0-1.31-1.3h-11a1.29,1.29,0,0,0-1.31,1.3V49.66Zm6-17.43h-6V29.5h6Zm0-5.84h-6V23.6h6Z"/><path id="パス_186" data-name="パス 186" d="M184,49.66h8.61a1.3,1.3,0,0,0,1.3-1.3h0V21.91a1.3,1.3,0,0,0-1.3-1.3h-11a1.31,1.31,0,0,0-1.31,1.3v11.9a1.3,1.3,0,0,0,1.31,1.3h8.49v11.1h-6.8Zm6.12-17.43h-6V29.5h6Zm0-5.84h-6V23.6h6Z"/><path id="パス_187" data-name="パス 187" d="M228.71,38.65H215.6V37.52L221.06,36a1.36,1.36,0,0,0,.86-1.21V30.45a.9.9,0,0,0-.91-.9H204.87v3h12.79v1.49l-2.51.62h-3.59v4h-13.7v3h13.7V46h-7.14l1.26,3.58h8.6a1.33,1.33,0,0,0,1.32-1.31V41.66h13.11Z"/><path id="パス_188" data-name="パス 188" d="M227.28,24.46h-4.51l1.8-4.35h-4.14l-1.81,4.35h-3.18l-1.8-4.35h-4.15l1.81,4.35h-3.7l-1.8-4.35h-4.15l1.81,4.35h-3.89a1.31,1.31,0,0,0-1.31,1.3h0V36.1h4.08V27.5h22.21v8.08h4V25.77a1.33,1.33,0,0,0-1.3-1.31Z"/><path id="パス_189" data-name="パス 189" d="M248.56,42.79l-5.07-11.52a8.28,8.28,0,0,1-1-3.57v-.59h3.3V23.88h-3.88V20H238v3.9h-5.31v3.23h4v1a21.4,21.4,0,0,1-1.3,5.68c-.51,1.44-4.75,14.62-4.75,14.62h3.91l3.42-13V49.63h3.91V35.22l2.64,7.57Z"/><path id="パス_190" data-name="パス 190" d="M261.93,29.7a4.37,4.37,0,0,1-.81-2.05v-.54H263V23.88h-6V20h-4v3.9h-5.95v3.23H249v.54a4.91,4.91,0,0,1-.89,2.07L246,33.05h2.9v2.66a4.12,4.12,0,0,0,.91,2.44l3.07,3.55-6.71,7.93H251l4.19-5.2,4.28,5.2h5l-6.94-8,3.05-3.45a4.46,4.46,0,0,0,.78-2.62V33.05h2.42Zm-9.19,6.08V32.6h-2l1.4-2.25a5.43,5.43,0,0,0,.66-2.7v-.54h4.53v.54a5.42,5.42,0,0,0,.54,2.5l1.4,2.46h-1.72v3.48l-2.29,2.81Z"/></g><path id="パス_195" data-name="パス 195" d="M40.1,5V6.16H29V5Z"/><path id="パス_196" data-name="パス 196" d="M49.16.09V1.56a11.82,11.82,0,0,0,1.18,5,8.9,8.9,0,0,0,4,3.82l-.7,1a9.71,9.71,0,0,1-5-6.85,9.27,9.27,0,0,1-5.1,6.8l-.69-.94a8.41,8.41,0,0,0,4.28-4.23,14.53,14.53,0,0,0,1-4.61V.09Z"/><path id="パス_197" data-name="パス 197" d="M62.46,1.22v1a5.76,5.76,0,0,0-2.53,4.62A2.61,2.61,0,0,0,62.27,9.7a2.26,2.26,0,0,0,.52,0,2.94,2.94,0,0,0,2.34-.89A4,4,0,0,0,65.9,6.4,10.89,10.89,0,0,0,65,2.08c-.19-.45-.56-1.17-.63-1.33l1.14-.3A5.9,5.9,0,0,0,69,4.26L68.6,5.39a4.86,4.86,0,0,1-2.16-1.72,9.09,9.09,0,0,1,.44,2.79c0,3.71-2.41,4.31-4,4.31a3.93,3.93,0,0,1-2.82-.86A4,4,0,0,1,58.91,7a6.29,6.29,0,0,1,2.14-4.73l-2.34.06V1.22Z"/><path id="パス_198" data-name="パス 198" d="M77.71.41c0,.86,0,1.47,0,2.34A2.9,2.9,0,0,0,78,4.25a23.93,23.93,0,0,1,4.43-1l.12,1.15a21,21,0,0,0-5,1.11c-.79.31-2.78,1.11-2.78,2.66s1.56,1.63,4.5,1.63a30.15,30.15,0,0,0,3.68-.2l0,1.13a20.68,20.68,0,0,1-2.94.14c-3.23,0-4-.17-4.87-.5a2.21,2.21,0,0,1-1.49-2.08c0-1.81,1.71-3,3.37-3.66-.4-.66-.44-.85-.45-4.2Z"/><path id="パス_199" data-name="パス 199" d="M90.62.59a20.48,20.48,0,0,0-.55,3.3A3.8,3.8,0,0,1,93.5,1.5c1.75,0,3.09,1.51,3.09,4.37,0,3.76-2.09,5.07-6.63,5.07l-.2-1c3.41,0,5.74-.49,5.74-4,0-.6,0-3.45-2.12-3.45-1.68,0-2.7,1.89-3,2.41A3.4,3.4,0,0,0,90,6.41c0,.13.11,1.28.12,1.42L89.05,8A14.66,14.66,0,0,1,89,6.38,35.48,35.48,0,0,1,89.49.47Z"/><path id="パス_200" data-name="パス 200" d="M104.47.7A26.51,26.51,0,0,0,104,6.18a19,19,0,0,0,.44,4.58l-1.11.13a16.42,16.42,0,0,1-.41-4.48,30.68,30.68,0,0,1,.46-5.82Zm3.08,5.38a2.8,2.8,0,0,0-.57,1.6c0,1.06.73,1.42,2.66,1.42.9,0,1.79,0,2.68-.12v1.1c-.73.07-1.46.1-2.2.1-1.51,0-4.19,0-4.19-2.4a4.26,4.26,0,0,1,.66-2.11Zm4.54-4.54v1h-5.81v-1Z"/><path id="パス_201" data-name="パス 201" d="M119.7,11a18.08,18.08,0,0,0-2-2.53l.91-.68a19.17,19.17,0,0,1,2.14,2.45Z"/><path id="パス_202" data-name="パス 202" d="M134.5,1.67V.07h1v1.6h4.36v1H135.5v2h5.06v1H136a12.18,12.18,0,0,0,4.76,3.89l-.59,1a13,13,0,0,1-4.65-4.08v5h-1v-5a13,13,0,0,1-4.62,4.08l-.57-1A10.43,10.43,0,0,0,134,5.62h-4.57v-1h5.06v-2h-4.34v-1Z"/><path id="パス_203" data-name="パス 203" d="M150.65,1.31V.09h1V1.31h4.7v.95h-4.7V5.39h5.1v1h-4.46a11.5,11.5,0,0,0,4.64,3.55l-.56,1a13.06,13.06,0,0,1-4.72-4v4.53h-1V6.91a13.56,13.56,0,0,1-4.6,3.95l-.63-.91a12.16,12.16,0,0,0,4.65-3.6h-4.46v-1h5V2.26h-4.58V1.31Zm-2.57,3.85A12.1,12.1,0,0,0,147.17,3l.94-.39a11.38,11.38,0,0,1,.94,2.25Zm5.17-.41a9.28,9.28,0,0,0,.94-2.14l1,.33a8.47,8.47,0,0,1-1,2.2Z"/><path id="パス_204" data-name="パス 204" d="M172.3,9.08c-2.12-1.7-3.92-3.37-4.3-3.76-1.68-1.7-1.78-1.8-2.21-1.8a1.3,1.3,0,0,0-.95.53c-.22.23-.43.5-2.37,2.9l-.82-1c.4-.41,2.11-2.35,2.48-2.72a2.18,2.18,0,0,1,1.65-.84c.78,0,1,.23,2.84,1.94A48.57,48.57,0,0,0,173.06,8Z"/><path id="パス_205" data-name="パス 205" d="M182.81,9.85c1.89-.17,2.88-.47,3.56-1.16a4.4,4.4,0,0,0,1-3.07,3.47,3.47,0,0,0-3.24-3.7,2.8,2.8,0,0,0-.41,0c0,2.45-.92,8-3.58,8-1.4,0-2.24-1.71-2.24-3.5A5.3,5.3,0,0,1,183.05.92a4.87,4.87,0,0,1,.54,0c3.34,0,5,2.07,5,4.76,0,4.64-3.84,5.06-5.43,5.19Zm-2.12-7.08A4.68,4.68,0,0,0,179,6.5c0,.91.3,2.31,1.24,2.31.63,0,1-.65,1.27-1.11A14.82,14.82,0,0,0,182.69,2a4.21,4.21,0,0,0-2,.8Z"/><path id="パス_206" data-name="パス 206" d="M198,1.63a26.38,26.38,0,0,1-2.3,3.59c.91,0,1.34-.1,1.69-.13a8.64,8.64,0,0,0-.38-.88l.76-.3a13.85,13.85,0,0,1,1,2.31l-.88.33c0-.19-.08-.3-.2-.69-.67.1-.91.12-1.08.14v5.4h-1V6.1c-1.18.08-1.48.11-2,.13l-.05-.94h1a9.47,9.47,0,0,0,.66-.94,10.64,10.64,0,0,0-1.74-1.68l.5-.75.4.32A15.26,15.26,0,0,0,195.68,0l.88.34a17.64,17.64,0,0,1-1.4,2.47c.05.06.36.38.7.77.49-.76.94-1.54,1.36-2.35Zm-4.42,8.59A9.67,9.67,0,0,0,194.21,7l.87.15a14.83,14.83,0,0,1-.58,3.43Zm4-.3a19,19,0,0,0-.5-2.81l.79-.17a15.69,15.69,0,0,1,.6,2.8ZM198.26,4a8.5,8.5,0,0,0,1.82-4l1,.11a13.76,13.76,0,0,1-.47,1.7h3.79c0,1.56,0,7.58-.44,8.69a1.36,1.36,0,0,1-1.42.88h-1.91l-.19-1.07h1.91c.29,0,.61,0,.74-.5a54.2,54.2,0,0,0,.32-7.09h-3.17a7.75,7.75,0,0,1-1.26,2ZM201,8a15.1,15.1,0,0,0-1.38-3l.85-.41a12,12,0,0,1,1.43,2.94Z"/><path id="パス_207" data-name="パス 207" d="M220.21,10.75a12.72,12.72,0,0,1-4.64-3.41v4.07h-1v-4a13.47,13.47,0,0,1-4.66,3.43l-.56-1A12.46,12.46,0,0,0,213.84,7h-3.42V3.28h4.18v-1h-5.09v-1h5.09V.07h1V1.31h5.12v1h-5.12v1h4.17V7h-3.37a12.47,12.47,0,0,0,4.41,2.73ZM214.6,4.11h-3.2v2h3.2Zm4.15,0h-3.18v2h3.18Z"/><path id="パス_208" data-name="パス 208" d="M229.46,9.17a1.79,1.79,0,1,1-1.79-1.82A1.8,1.8,0,0,1,229.46,9.17Zm-3,0A1.2,1.2,0,1,0,227.66,8a1.21,1.21,0,0,0-.84.35A1.24,1.24,0,0,0,226.48,9.17Z"/></g></g></svg>