<svg xmlns="http://www.w3.org/2000/svg" viewBox="0 0 140.96 130.76"><defs><style>.cls-1{fill:#118b42;}.cls-2{fill:#e71f19;}.cls-3{fill:#17499d;}</style></defs><g id="レイヤー_2" data-name="レイヤー 2"><g id="レイヤー_1-2" data-name="レイヤー 1"><rect class="cls-1" x="68.02" width="8.25" height="130.5"/><path class="cls-2" d="M29.41,21.8a10.9,10.9,0,1,0-10.9-10.9A10.9,10.9,0,0,0,29.41,21.8Z"/><path class="cls-2" d="M58.7,65.83l-8-28.48C48.46,29.89,43.51,25,37.93,25h-17c-5.57,0-10.52,4.94-12.73,12.4l-8,28.48A4.5,4.5,0,0,0,3.4,71.27a4.42,4.42,0,0,0,5.4-3.21l8-28.39h2.36L5.24,89.05H18.37v36.64a5.07,5.07,0,1,0,10.13,0V89.05h2.8v36.64a5.07,5.07,0,0,0,10.14,0V89.05H53.59L39.67,39.67H42l8,28.39a4.41,4.41,0,0,0,5.39,3.21A4.5,4.5,0,0,0,58.7,65.83Z"/><path class="cls-3" d="M116.51,21.8A10.9,10.9,0,1,0,105.6,10.9,10.9,10.9,0,0,0,116.51,21.8Z"/><path class="cls-3" d="M129.93,24.88H101.28c-5.28,0-11,5.75-11,11V72.56a4.78,4.78,0,0,0,9.56,0V42.43H102v81.78a6.29,6.29,0,1,0,12.57,0V76.75h2v47.46a6.29,6.29,0,1,0,12.57,0V42.43h2.2V72.56a4.79,4.79,0,0,0,9.57,0V35.91C141,30.63,135.21,24.88,129.93,24.88Z"/></g></g></svg>