<svg xmlns="http://www.w3.org/2000/svg" xmlns:xlink="http://www.w3.org/1999/xlink" viewBox="0 0 264.53 205.5"><defs><style>.cls-1{fill:none;}.cls-2{fill:#008a45;}.cls-3{clip-path:url(#clip-path);}.cls-4{fill:url(#名称未設定グラデーション);}</style><clipPath id="clip-path" transform="translate(0 0)"><path class="cls-1" d="M218.22,12.36A12.33,12.33,0,1,1,205.89,0a12.32,12.32,0,0,1,12.33,12.36Z"/></clipPath><radialGradient id="名称未設定グラデーション" cx="-641.67" cy="339.57" r="1.14" gradientTransform="translate(7147.26 -3656.26) scale(10.81 10.81)" gradientUnits="userSpaceOnUse"><stop offset="0" stop-color="#99d69d"/><stop offset="0.11" stop-color="#99d69d"/><stop offset="0.46" stop-color="#33a55a"/><stop offset="0.99" stop-color="#00532a"/><stop offset="1" stop-color="#00532a"/></radialGradient></defs><g id="レイヤー_2" data-name="レイヤー 2"><g id="レイヤー_1-2" data-name="レイヤー 1"><g id="グループ化_44" data-name="グループ化 44"><path id="パス_191" data-name="パス 191" class="cls-2" d="M189.64,29.33c-6.31-6.35-19.17-2.21-27.78,1.93a48.89,48.89,0,0,0-63.23,71.49A472.82,472.82,0,0,1,46.3,128.9l.13.33a327.51,327.51,0,0,0,58.13-19.69A48.89,48.89,0,0,0,183.19,55c8.87-12.3,10.11-21.94,6.45-25.62M106.71,62.27a39.38,39.38,0,0,1,46.52-30.09c3.36.75,10.36,3.37,6.16,14.25C155.44,57.27,142.72,74,113.18,93.65a39.32,39.32,0,0,1-6.47-31.38m76.94,16.87A39.4,39.4,0,0,1,121,101.75a297.58,297.58,0,0,0,27.31-15.53C164.19,75.9,175.07,65.6,182,56.61a39.27,39.27,0,0,1,1.68,22.52" transform="translate(0 0)"/><g id="グループ化_43" data-name="グループ化 43"><g class="cls-3"><g id="グループ化_42" data-name="グループ化 42"><g id="グループ化_41" data-name="グループ化 41"><rect id="長方形_106" data-name="長方形 106" class="cls-4" x="193.56" width="24.67" height="24.68"/><path id="パス_192" data-name="パス 192" class="cls-1" d="M193.56,12.36a12.34,12.34,0,1,0,3.61-8.74,12.34,12.34,0,0,0-3.61,8.74" transform="translate(0 0)"/></g></g></g><path id="パス_194" data-name="パス 194" class="cls-2" d="M189.63,29.33c-6.3-6.36-19.18-2.21-27.77,1.93a48.89,48.89,0,0,0-63.23,71.49A472.82,472.82,0,0,1,46.3,128.9l.13.33a325.91,325.91,0,0,0,58.13-19.69A48.89,48.89,0,0,0,183.19,55C192.06,42.68,193.3,33,189.63,29.33ZM106.71,62.27a39.37,39.37,0,0,1,46.52-30.09c3.36.75,10.36,3.37,6.16,14.25C155.44,57.27,142.72,74,113.18,93.65A39.32,39.32,0,0,1,106.71,62.27Zm76.94,16.87A39.39,39.39,0,0,1,121,101.76a297.58,297.58,0,0,0,27.31-15.53c15.92-10.32,26.8-20.62,33.7-29.6a39.23,39.23,0,0,1,1.67,22.51Z" transform="translate(0 0)"/></g></g><g id="グループ化_40" data-name="グループ化 40"><path id="パス_179" data-name="パス 179" d="M1.31,176.52A1.31,1.31,0,0,0,0,177.82v26.07a1.31,1.31,0,0,0,1.31,1.31H24.49a1.31,1.31,0,0,0,1.31-1.31V177.81a1.31,1.31,0,0,0-1.31-1.3Zm20.51,25.26H3.92v-9.52h17.9Zm0-12.95H3.92v-9h17.9Z" transform="translate(0 0)"/><path id="パス_180" data-name="パス 180" d="M51.28,190.69l4.92,13.65h4.3l-5.16-13.8a7.12,7.12,0,0,1-.52-2.5v-6.2h5.34v-3.37H46.89v-3.33H42.74v3.33H29.46v3.37H34.7V188a7.69,7.69,0,0,1-.51,2.5L29,204.34h4.3l4.92-13.65a7.94,7.94,0,0,0,.5-2.5v-6.35h4v14.82h-5.8v3.39h5.8v5.42h4.15v-5.42h5.79v-3.39H46.89V181.84h3.89v6.35a7.94,7.94,0,0,0,.5,2.5Z" transform="translate(0 0)"/><path id="パス_181" data-name="パス 181" d="M91.85,180.46H79.79V179H90.27v-2.82H65.57V179H76v1.5H64a1.3,1.3,0,0,0-1.3,1.3h0v6.56h3.87v-5.1H69v3.66a1.32,1.32,0,0,0,1.32,1.31H85.53a1.31,1.31,0,0,0,1.3-1.31v-3.66h2.55v5.1h3.79v-6.56a1.32,1.32,0,0,0-1.32-1.3Zm-19.24,2.76h3.44v2.18H72.61Zm10.73,2.18H79.79v-2.18h3.55Z" transform="translate(0 0)"/><path id="パス_182" data-name="パス 182" d="M90.78,200.92a1.31,1.31,0,0,0,1.3-1.3v-8.86a1.33,1.33,0,0,0-1.3-1.31H65.06a1.33,1.33,0,0,0-1.31,1.31v8.86a1.31,1.31,0,0,0,1.31,1.3H76v3.24a1.32,1.32,0,0,0,1.3,1.31H92.07v-3H79.79v-1.58Zm-11-8.9h8.42v1.8H79.79Zm0,4.49h8.42v1.78H79.79ZM67.62,192H76v1.8H67.62Zm0,6.27v-1.77H76v1.77Z" transform="translate(0 0)"/><path id="パス_183" data-name="パス 183" d="M126.58,189.82H113.72V188L123,185.2a2,2,0,0,0,1.22-1.76v-5.55a1.23,1.23,0,0,0-1.15-1.31.65.65,0,0,0-.14,0H98.22v3.5h21.84v2.37l-6.34,1.88h-4.15v5.49H95.88v3.37h13.69v9h-9.45l.75,3.26h11.54a1.31,1.31,0,0,0,1.31-1.31v-11h12.86Z" transform="translate(0 0)"/><path id="パス_184" data-name="パス 184" d="M155.33,193.81H158a1.31,1.31,0,0,0,1.3-1.31V183a1.31,1.31,0,0,0-1.3-1.31H147v-1.62h13.5v-3H147V175.4h-3.75v1.66H129.79v3h13.45v1.62h-11A1.33,1.33,0,0,0,131,183v9.52a1.33,1.33,0,0,0,1.31,1.31h19.24v1.75H130v3h4l1.13,5.14H139l-1.13-5.14h13.68v3.62H140.58l.58,3.34H154a1.31,1.31,0,0,0,1.3-1.31v-5.65h5.35v-3h-5.35ZM143.25,191h-8.41v-1.78h8.41Zm0-4.61h-8.41v-1.79h8.41Zm3.77-1.79h8.41v1.79H147Zm0,4.62h8.41V191H147Z" transform="translate(0 0)"/><path id="パス_185" data-name="パス 185" d="M168.27,205.47V190.93h8.48a1.31,1.31,0,0,0,1.31-1.31v-11.9a1.31,1.31,0,0,0-1.31-1.3h-11a1.31,1.31,0,0,0-1.31,1.3v27.75Zm6-17.43h-6v-2.72h6Zm0-5.83h-6v-2.79h6Z" transform="translate(0 0)"/><path id="パス_186" data-name="パス 186" d="M184,205.47h8.61a1.29,1.29,0,0,0,1.3-1.29h0V177.72a1.3,1.3,0,0,0-1.3-1.3h-11a1.31,1.31,0,0,0-1.31,1.3v11.9a1.3,1.3,0,0,0,1.31,1.31h8.49V202h-6.8ZM190.16,188h-6v-2.72h6Zm0-5.83h-6v-2.79h6Z" transform="translate(0 0)"/><path id="パス_187" data-name="パス 187" d="M228.71,194.47H215.6v-1.13l5.46-1.48a1.37,1.37,0,0,0,.86-1.21v-4.38a.91.91,0,0,0-.91-.91H204.87v3h12.79v1.49l-2.51.61h-3.59v4h-13.7v3h13.7v4.38h-7.14l1.26,3.59h8.6a1.34,1.34,0,0,0,1.32-1.32v-6.65h13.11Z" transform="translate(0 0)"/><path id="パス_188" data-name="パス 188" d="M227.28,180.27h-4.51l1.8-4.34h-4.14l-1.81,4.34h-3.18l-1.8-4.34h-4.15l1.81,4.34h-3.7l-1.8-4.34h-4.15l1.81,4.34h-3.89a1.32,1.32,0,0,0-1.31,1.31h0v10.33h4.08v-8.6h22.21v8.07h4v-9.8a1.33,1.33,0,0,0-1.3-1.32Z" transform="translate(0 0)"/><path id="パス_189" data-name="パス 189" d="M248.56,198.61l-5.07-11.53a8.23,8.23,0,0,1-1-3.56v-.59h3.3v-3.24h-3.88v-3.9H238v3.9h-5.31v3.24h4v1a21.22,21.22,0,0,1-1.3,5.68c-.51,1.45-4.75,14.63-4.75,14.63h3.91l3.42-13v14.15h3.91V191l2.64,7.58Z" transform="translate(0 0)"/><path id="パス_190" data-name="パス 190" d="M261.93,185.52a4.4,4.4,0,0,1-.81-2.06v-.53H263v-3.24h-6v-3.9h-4v3.9h-5.95v3.24H249v.53a5,5,0,0,1-.89,2.08l-2.1,3.33h2.9v2.66a4.07,4.07,0,0,0,.91,2.43l3.07,3.55-6.71,7.94H251l4.19-5.2,4.28,5.2h5l-6.94-8,3.05-3.45a4.46,4.46,0,0,0,.78-2.62v-2.55h2.42Zm-9.19,6.07v-3.17h-2l1.4-2.26a5.37,5.37,0,0,0,.66-2.7v-.53h4.53v.53a5.37,5.37,0,0,0,.54,2.5l1.4,2.46h-1.72v3.49l-2.29,2.81Z" transform="translate(0 0)"/></g><path id="パス_195" data-name="パス 195" d="M40.1,160.82V162H29v-1.16Z" transform="translate(0 0)"/><path id="パス_196" data-name="パス 196" d="M49.16,155.9v1.48a11.82,11.82,0,0,0,1.18,5,8.9,8.9,0,0,0,4,3.82l-.7,1a9.67,9.67,0,0,1-5-6.85,9.26,9.26,0,0,1-5.1,6.8l-.69-.94A8.39,8.39,0,0,0,47.13,162a14.53,14.53,0,0,0,1-4.61V155.9Z" transform="translate(0 0)"/><path id="パス_197" data-name="パス 197" d="M62.46,157v1a5.75,5.75,0,0,0-2.53,4.61,2.62,2.62,0,0,0,2.34,2.86h.52a3,3,0,0,0,2.34-.9,4,4,0,0,0,.77-2.4,11,11,0,0,0-.93-4.33c-.19-.45-.56-1.17-.63-1.33l1.14-.3A5.88,5.88,0,0,0,69,160.07l-.35,1.14a4.86,4.86,0,0,1-2.16-1.72,9.08,9.08,0,0,1,.44,2.78c0,3.71-2.41,4.31-4,4.31a3.92,3.92,0,0,1-2.82-.85,4,4,0,0,1-1.19-2.93,6.33,6.33,0,0,1,2.14-4.74l-2.34.06V157Z" transform="translate(0 0)"/><path id="パス_198" data-name="パス 198" d="M77.71,156.23c0,.86,0,1.47,0,2.33a2.87,2.87,0,0,0,.29,1.5,24.73,24.73,0,0,1,4.43-1l.12,1.15a20.52,20.52,0,0,0-5,1.11c-.79.3-2.78,1.11-2.78,2.66s1.56,1.62,4.5,1.62a28.27,28.27,0,0,0,3.68-.2l0,1.14a20.67,20.67,0,0,1-2.94.13c-3.23,0-4-.17-4.87-.5a2.18,2.18,0,0,1-1.49-2.07c0-1.81,1.71-3,3.37-3.67-.4-.65-.44-.85-.45-4.2Z" transform="translate(0 0)"/><path id="パス_199" data-name="パス 199" d="M90.62,156.4a20.6,20.6,0,0,0-.55,3.31,3.8,3.8,0,0,1,3.43-2.39c1.75,0,3.09,1.51,3.09,4.37,0,3.76-2.09,5.06-6.63,5.06l-.2-1c3.41,0,5.74-.48,5.74-4,0-.6,0-3.46-2.12-3.46-1.68,0-2.7,1.89-3,2.42a3.32,3.32,0,0,0-.42,1.51c0,.14.11,1.28.12,1.43l-1.07.17a14.7,14.7,0,0,1-.09-1.63,35.48,35.48,0,0,1,.53-5.91Z" transform="translate(0 0)"/><path id="パス_200" data-name="パス 200" d="M104.47,156.52A26.51,26.51,0,0,0,104,162a19,19,0,0,0,.44,4.57l-1.11.14a16.49,16.49,0,0,1-.41-4.48,30.68,30.68,0,0,1,.46-5.82Zm3.08,5.38a2.8,2.8,0,0,0-.57,1.6c0,1.06.73,1.42,2.66,1.42a26.57,26.57,0,0,0,2.68-.13v1.1a20.13,20.13,0,0,1-2.2.1c-1.51,0-4.19,0-4.19-2.4a4.26,4.26,0,0,1,.66-2.11Zm4.54-4.54v1h-5.81v-1.05Z" transform="translate(0 0)"/><path id="パス_201" data-name="パス 201" d="M119.7,166.83a17.52,17.52,0,0,0-2-2.53l.91-.68a18.51,18.51,0,0,1,2.14,2.45Z" transform="translate(0 0)"/><path id="パス_202" data-name="パス 202" d="M134.5,157.49v-1.6h1v1.6h4.36v1H135.5v2h5.06v1H136a12.21,12.21,0,0,0,4.76,3.9l-.59.95a13.14,13.14,0,0,1-4.65-4.08v5h-1v-5a13,13,0,0,1-4.62,4.08l-.57-1a10.3,10.3,0,0,0,4.7-3.88h-4.57v-1h5.06v-2h-4.34v-1Z" transform="translate(0 0)"/><path id="パス_203" data-name="パス 203" d="M150.65,157.12V155.9h1v1.22h4.7v.95h-4.7v3.14h5.1v.95h-4.46a11.43,11.43,0,0,0,4.64,3.56l-.56,1a13.08,13.08,0,0,1-4.72-4v4.53h-1v-4.47a13.48,13.48,0,0,1-4.6,4l-.63-.92a12.07,12.07,0,0,0,4.65-3.6h-4.46v-.95h5v-3.14h-4.58v-.95ZM148.08,161a11.55,11.55,0,0,0-.91-2.21l.94-.39a11.3,11.3,0,0,1,.94,2.24Zm5.17-.42a9,9,0,0,0,.94-2.13l1,.33a8.47,8.47,0,0,1-1,2.2Z" transform="translate(0 0)"/><path id="パス_204" data-name="パス 204" d="M172.3,164.9c-2.12-1.7-3.92-3.37-4.3-3.76-1.68-1.7-1.78-1.8-2.21-1.8a1.32,1.32,0,0,0-.95.52c-.22.23-.43.5-2.37,2.9l-.82-1c.4-.42,2.11-2.36,2.48-2.72a2.22,2.22,0,0,1,1.65-.85c.78,0,1,.24,2.84,1.94a48.68,48.68,0,0,0,4.44,3.68Z" transform="translate(0 0)"/><path id="パス_205" data-name="パス 205" d="M182.81,165.67c1.89-.17,2.88-.48,3.56-1.16a4.44,4.44,0,0,0,1-3.08,3.46,3.46,0,0,0-3.24-3.69h-.41c0,2.46-.92,8-3.58,8-1.4,0-2.24-1.71-2.24-3.5a5.3,5.3,0,0,1,5.11-5.48,4.86,4.86,0,0,1,.54,0c3.34,0,5,2.08,5,4.76,0,4.64-3.84,5.07-5.43,5.19Zm-2.12-7.08a4.68,4.68,0,0,0-1.72,3.73c0,.91.3,2.3,1.24,2.3.63,0,1-.64,1.27-1.11a14.73,14.73,0,0,0,1.21-5.71,4.3,4.3,0,0,0-2,.79Z" transform="translate(0 0)"/><path id="パス_206" data-name="パス 206" d="M198,157.45a26.38,26.38,0,0,1-2.3,3.59c.91,0,1.34-.1,1.69-.13a7.77,7.77,0,0,0-.38-.88l.76-.3a14.12,14.12,0,0,1,1,2.3l-.88.33c0-.18-.08-.29-.2-.68-.67.1-.91.12-1.08.13v5.4h-1v-5.29c-1.18.08-1.48.11-2,.13l-.05-.94h1a9.47,9.47,0,0,0,.66-.94,11.14,11.14,0,0,0-1.74-1.69l.5-.74.4.32a15.78,15.78,0,0,0,1.17-2.23l.88.34a17.53,17.53,0,0,1-1.4,2.46c.05.07.36.38.7.77.49-.75.94-1.54,1.36-2.34ZM193.62,166a9.61,9.61,0,0,0,.59-3.23l.87.15a14.83,14.83,0,0,1-.58,3.43Zm4-.3a19.48,19.48,0,0,0-.5-2.81l.79-.17a16,16,0,0,1,.6,2.81Zm.59-5.93a8.5,8.5,0,0,0,1.82-4l1,.11a14.8,14.8,0,0,1-.47,1.7h3.79c0,1.56,0,7.58-.44,8.69a1.37,1.37,0,0,1-1.42.88h-1.91l-.19-1.08,1.91,0c.29,0,.61,0,.74-.5a54.35,54.35,0,0,0,.32-7.1h-3.17a7.59,7.59,0,0,1-1.26,2Zm2.72,4a14.84,14.84,0,0,0-1.38-3l.85-.42a12.19,12.19,0,0,1,1.43,3Z" transform="translate(0 0)"/><path id="パス_207" data-name="パス 207" d="M220.21,166.57a12.75,12.75,0,0,1-4.64-3.42v4.08h-1v-4a13.47,13.47,0,0,1-4.66,3.43l-.56-1a12.6,12.6,0,0,0,4.46-2.83h-3.42V159.1h4.18v-1h-5.09v-1h5.09v-1.23h1v1.23h5.12v1h-5.12v1h4.17v3.72h-3.37a12.49,12.49,0,0,0,4.41,2.74Zm-5.61-6.64h-3.2v2h3.2Zm4.15,0h-3.18v2h3.18Z" transform="translate(0 0)"/><path id="パス_208" data-name="パス 208" d="M229.46,165a1.79,1.79,0,1,1-1.79-1.82A1.81,1.81,0,0,1,229.46,165Zm-3,0a1.18,1.18,0,1,0,.34-.85A1.24,1.24,0,0,0,226.48,165Z" transform="translate(0 0)"/></g></g></svg>