<svg xmlns="http://www.w3.org/2000/svg" viewBox="0 0 54.24 120.56"><defs><style>.cls-1{fill:#e71f19;}</style></defs><g id="レイヤー_2" data-name="レイヤー 2"><g id="レイヤー_1-2" data-name="レイヤー 1"><path class="cls-1" d="M27.12,20.1a10.05,10.05,0,1,0-10-10A10.05,10.05,0,0,0,27.12,20.1Z"/><path class="cls-1" d="M54.12,60.7l-7.4-26.26C44.68,27.56,40.12,23,35,23H19.26c-5.13,0-9.7,4.56-11.74,11.44L.12,60.7a4.14,4.14,0,0,0,3,5,4.06,4.06,0,0,0,5-3l7.38-26.18h2.18L4.83,82.11h12.1v33.78a4.68,4.68,0,0,0,9.35,0V82.11h2.58v33.78a4.68,4.68,0,0,0,9.35,0V82.11h11.2L36.57,36.57h2.18l7.38,26.18a4.06,4.06,0,0,0,5,3A4.14,4.14,0,0,0,54.12,60.7Z"/></g></g></svg>