<svg xmlns="http://www.w3.org/2000/svg" viewBox="0 0 46.32 127.01"><defs><style>.cls-1{fill:#17499d;}</style></defs><g id="レイヤー_2" data-name="レイヤー 2"><g id="レイヤー_1-2" data-name="レイヤー 1"><path class="cls-1" d="M32.9,9.74A9.74,9.74,0,1,1,23.16,0,9.74,9.74,0,0,1,32.9,9.74Z"/><path class="cls-1" d="M23.16,22.53C16.25,22.53,0,23.19,0,36.61V68.68A3.79,3.79,0,0,0,7.58,69L9.37,49.56l1.94,72.51a4.95,4.95,0,0,0,9.89,0l2-44.58,2,44.58a4.95,4.95,0,0,0,9.89,0l2-72.51L38.74,69a3.79,3.79,0,0,0,7.58-.36V36.61C46.32,23.19,30.08,22.53,23.16,22.53Z"/></g></g></svg>