<svg xmlns="http://www.w3.org/2000/svg" xmlns:xlink="http://www.w3.org/1999/xlink" viewBox="0 0 75.3 56.6"><defs><style>.cls-1{fill:none;}.cls-2{fill:#008a45;}.cls-3{clip-path:url(#clip-path);}.cls-4{fill:url(#名称未設定グラデーション);}</style><clipPath id="clip-path" transform="translate(0 0)"><path class="cls-1" d="M75.3,5.41A5.4,5.4,0,1,1,69.9,0a5.4,5.4,0,0,1,5.4,5.41Z"/></clipPath><radialGradient id="名称未設定グラデーション" cx="-737.25" cy="458.59" r="0.5" gradientTransform="translate(8043.47 -4951.27) scale(10.81 10.81)" gradientUnits="userSpaceOnUse"><stop offset="0" stop-color="#99d69d"/><stop offset="0.11" stop-color="#99d69d"/><stop offset="0.46" stop-color="#33a55a"/><stop offset="0.99" stop-color="#00532a"/><stop offset="1" stop-color="#00532a"/></radialGradient></defs><g id="レイヤー_2" data-name="レイヤー 2"><g id="レイヤー_1-2" data-name="レイヤー 1"><g id="グループ化_45" data-name="グループ化 45"><path id="パス_191" data-name="パス 191" class="cls-2" d="M62.78,12.85c-2.76-2.79-8.4-1-12.17.84A21.41,21.41,0,0,0,22.92,45,208.47,208.47,0,0,1,0,56.46l.05.14A143.84,143.84,0,0,0,25.52,48,21.41,21.41,0,0,0,60,24.07c3.89-5.39,4.43-9.61,2.83-11.22M26.45,27.27A17.26,17.26,0,0,1,46.83,14.09c1.47.33,4.54,1.48,2.7,6.24S42.23,32.4,29.29,41a17.28,17.28,0,0,1-2.84-13.75m33.7,7.39a17.24,17.24,0,0,1-27.45,9.9,128.22,128.22,0,0,0,12-6.8c7-4.52,11.74-9,14.76-13a17.2,17.2,0,0,1,.73,9.86" transform="translate(0 0)"/><g id="グループ化_43" data-name="グループ化 43"><g class="cls-3"><g id="グループ化_42" data-name="グループ化 42"><g id="グループ化_41" data-name="グループ化 41"><rect id="長方形_106" data-name="長方形 106" class="cls-4" x="64.5" width="10.8" height="10.81"/><path id="パス_192" data-name="パス 192" class="cls-1" d="M64.5,5.41a5.39,5.39,0,1,0,1.57-3.82A5.39,5.39,0,0,0,64.5,5.41" transform="translate(0 0)"/></g></g></g><path id="パス_194" data-name="パス 194" class="cls-2" d="M62.78,12.85c-2.76-2.79-8.4-1-12.17.84A21.41,21.41,0,0,0,22.92,45,208.47,208.47,0,0,1,0,56.46l.05.14A143,143,0,0,0,25.52,48,21.41,21.41,0,0,0,60,24.07C63.84,18.69,64.38,14.46,62.78,12.85ZM26.45,27.27A17.26,17.26,0,0,1,46.83,14.09c1.47.33,4.54,1.48,2.7,6.24S42.23,32.4,29.29,41A17.28,17.28,0,0,1,26.45,27.27Zm33.7,7.39A17.25,17.25,0,0,1,32.7,44.57a133.08,133.08,0,0,0,12-6.8c7-4.52,11.73-9,14.75-13a17.2,17.2,0,0,1,.74,9.86Z" transform="translate(0 0)"/></g></g></g></g></svg>